<?xml version="1.0" encoding="UTF-8"?>
<svg fill="none" viewBox="0 0 337 203" xmlns="http://www.w3.org/2000/svg">
<path d="m337 23h-133v201h0.733c4.782 11.319 32.406 20 65.767 20s60.985-8.681 65.767-20h0.733v-201z" clip-rule="evenodd" fill="#CDE4E4" fill-rule="evenodd"/>
<g filter="url(#w)">
<mask id="c" x="204" y="0" width="133" height="47" mask-type="alpha" maskUnits="userSpaceOnUse">
<ellipse cx="270.5" cy="23.5" rx="66.5" ry="23.5" fill="#F8F8F9"/>
</mask>
<g mask="url(#c)">
<ellipse cx="270.5" cy="23.5" rx="66.5" ry="23.5" fill="#E4F5F5"/>
<path d="m313.45 42.294c0.325-1.6222-0.06-4.9047-8.105-5.6265-10.751-0.966-19.973-2.5968-20.038-2.6083-1.506-0.9058-1.785-2.5015-1.785-2.5015l-0.182 4e-3c3.42-1.2978 4.916-2.9266 5.535-4.2967 0.25 0.0792 0.55 0.1369 0.889 0.1374 1.016 0.0015 2.384-0.5148 3.862-2.519 1.849-2.5084 0.105-2.9977-1.574-2.9902-0.24 1e-3 -0.478 0.012-0.705 0.029 7e-3 -0.0165 0.011-0.026 0.011-0.026 4.691-6.947-5.084-7.2112-6.64-7.2102-0.131 0-0.204 2e-3 -0.204 2e-3 -0.831-1.3079-5.547-2.6629-10.47-2.707-0.703-0.0065-1.412 0.014-2.112 0.0652-1.753 0.1278-4.088 0.171-6.47 0.1689-5.242-0.0041-7.353 0.6863-7.353 0.6863l-1.424 0.5549c-11.93 2.5706-6.97 8.4169-6.97 8.4169l-5e-3 0.0546c-0.336-0.0357-0.398-0.0331-0.784-0.0341-1.673-0.0045-3.403 0.4888-1.559 2.9903 1.464 1.9872 2.823 2.5115 3.837 2.519 0.283 0.0025 0.54-0.0361 0.764-0.0942 0.629 1.359 2.127 2.9657 5.503 4.249 0 0-0.316 1.8022-2.084 2.6629 0 0-8.95 1.4774-19.739 2.4464-8.041 0.7224-8.43 4.0009-8.106 5.6241 0 0-0.094 2.2554 0.934 3.1702 0 0 6.115 1.4037 17.104 2.4596 0 0 13.381-0.0062 26.352-0.0062h23.58c10.949-1.0552 17.041-2.4534 17.041-2.4534 1.026-0.9149 0.934-3.1702 0.934-3.1702l-0.037 0.0028z" fill="#fff"/>
</g>
</g>
<g filter="url(#l)">
<path d="m337 40c-0.777 1.5556-1.993 3.0587-3.603 4.4932-0.712 1.012-1.673 2.0368-2.905 3.0663-3.115 2.6026-7.743 5.0362-13.636 7.1188-11.769 4.1589-28.158 6.7687-46.356 6.7687s-34.588-2.6098-46.356-6.7687c-5.894-2.0826-10.521-4.5162-13.636-7.1188-1.232-1.0295-2.193-2.0543-2.906-3.0663-1.609-1.4345-2.825-2.9376-3.602-4.4932 0.081 12.954 29.823 23.447 66.5 23.447s66.419-10.493 66.5-23.447z" clip-rule="evenodd" fill="#C0DCDC" fill-rule="evenodd"/>
</g>
<g filter="url(#k)">
<path d="m337 56.447c-0.777 1.5556-1.993 3.0587-3.603 4.4932-0.712 1.012-1.673 2.0368-2.905 3.0663-3.115 2.6026-7.743 5.0362-13.636 7.1188-11.769 4.1589-28.158 6.7687-46.356 6.7687s-34.588-2.6098-46.356-6.7687c-5.894-2.0826-10.521-4.5162-13.636-7.1188-1.232-1.0295-2.193-2.0543-2.906-3.0663-1.609-1.4345-2.825-2.9376-3.602-4.4932 0.081 12.954 29.823 23.447 66.5 23.447s66.419-10.493 66.5-23.447z" clip-rule="evenodd" fill="#C0DCDC" fill-rule="evenodd"/>
</g>
<g filter="url(#j)">
<path d="m337 72.894c-0.777 1.5556-1.993 3.0587-3.603 4.4933-0.712 1.0119-1.673 2.0367-2.905 3.0662-3.115 2.6026-7.743 5.0362-13.636 7.1188-11.769 4.1589-28.158 6.7687-46.356 6.7687s-34.588-2.6098-46.356-6.7687c-5.894-2.0826-10.521-4.5162-13.636-7.1188-1.232-1.0295-2.193-2.0543-2.906-3.0662-1.609-1.4346-2.825-2.9377-3.602-4.4933 0.081 12.954 29.823 23.447 66.5 23.447s66.419-10.493 66.5-23.447z" clip-rule="evenodd" fill="#C0DCDC" fill-rule="evenodd"/>
</g>
<g filter="url(#i)">
<path d="m337 89.341c-0.777 1.5556-1.993 3.0586-3.603 4.4932-0.712 1.012-1.673 2.0367-2.905 3.0662-3.115 2.6027-7.743 5.0365-13.636 7.1185-11.769 4.159-28.158 6.769-46.356 6.769s-34.588-2.61-46.356-6.769c-5.894-2.082-10.521-4.5158-13.636-7.1185-1.232-1.0295-2.193-2.0542-2.906-3.0662-1.609-1.4346-2.825-2.9377-3.602-4.4932 0.081 12.954 29.823 23.447 66.5 23.447s66.419-10.493 66.5-23.447z" clip-rule="evenodd" fill="#C0DCDC" fill-rule="evenodd"/>
</g>
<g filter="url(#h)">
<path d="m337 105.79c-0.777 1.556-1.993 3.059-3.603 4.493-0.712 1.012-1.673 2.037-2.905 3.067-3.115 2.602-7.743 5.036-13.636 7.118-11.769 4.159-28.158 6.769-46.356 6.769s-34.588-2.61-46.356-6.769c-5.894-2.082-10.521-4.516-13.636-7.118-1.232-1.03-2.193-2.055-2.906-3.067-1.609-1.434-2.825-2.937-3.602-4.493 0.081 12.954 29.823 23.447 66.5 23.447s66.419-10.493 66.5-23.447z" clip-rule="evenodd" fill="#C0DCDC" fill-rule="evenodd"/>
</g>
<g filter="url(#g)">
<path d="m337 122.24c-0.777 1.556-1.993 3.059-3.603 4.493-0.712 1.012-1.673 2.037-2.905 3.067-3.115 2.602-7.743 5.036-13.636 7.118-11.769 4.159-28.158 6.769-46.356 6.769s-34.588-2.61-46.356-6.769c-5.894-2.082-10.521-4.516-13.636-7.118-1.232-1.03-2.193-2.055-2.906-3.067-1.609-1.434-2.825-2.937-3.602-4.493 0.081 12.954 29.823 23.447 66.5 23.447s66.419-10.493 66.5-23.447z" clip-rule="evenodd" fill="#C0DCDC" fill-rule="evenodd"/>
</g>
<g filter="url(#f)">
<path d="m337 138.68c-0.777 1.556-1.993 3.059-3.603 4.493-0.712 1.012-1.673 2.037-2.905 3.067-3.115 2.602-7.743 5.036-13.636 7.118-11.769 4.159-28.158 6.769-46.356 6.769s-34.588-2.61-46.356-6.769c-5.894-2.082-10.521-4.516-13.636-7.118-1.232-1.03-2.193-2.055-2.906-3.067-1.609-1.434-2.825-2.937-3.602-4.493 0.081 12.954 29.823 23.447 66.5 23.447s66.419-10.493 66.5-23.447z" clip-rule="evenodd" fill="#C0DCDC" fill-rule="evenodd"/>
</g>
<g filter="url(#e)">
<path d="m337 155.13c-0.777 1.556-1.993 3.059-3.603 4.493-0.712 1.012-1.673 2.037-2.905 3.067-3.115 2.602-7.743 5.036-13.636 7.118-11.769 4.159-28.158 6.769-46.356 6.769s-34.588-2.61-46.356-6.769c-5.894-2.082-10.521-4.516-13.636-7.118-1.232-1.03-2.193-2.055-2.906-3.067-1.609-1.434-2.825-2.937-3.602-4.493 0.081 12.954 29.823 23.447 66.5 23.447s66.419-10.493 66.5-23.447z" clip-rule="evenodd" fill="#C0DCDC" fill-rule="evenodd"/>
</g>
<g filter="url(#d)">
<path d="m337 171.58c-0.777 1.556-1.993 3.059-3.603 4.493-0.712 1.012-1.673 2.037-2.905 3.067-3.115 2.602-7.743 5.036-13.636 7.118-11.769 4.159-28.158 6.769-46.356 6.769s-34.588-2.61-46.356-6.769c-5.894-2.082-10.521-4.516-13.636-7.118-1.232-1.03-2.193-2.055-2.906-3.067-1.609-1.434-2.825-2.937-3.602-4.493 0.081 12.954 29.823 23.447 66.5 23.447s66.419-10.492 66.5-23.447z" clip-rule="evenodd" fill="#C0DCDC" fill-rule="evenodd"/>
</g>
<g filter="url(#v)">
<path d="m337 188.02c-0.777 1.556-1.993 3.059-3.603 4.493-0.712 1.012-1.673 2.037-2.905 3.067-3.115 2.602-7.743 5.036-13.636 7.118-11.769 4.159-28.158 6.769-46.356 6.769s-34.588-2.61-46.356-6.769c-5.894-2.082-10.521-4.516-13.636-7.118-1.232-1.03-2.193-2.055-2.906-3.067-1.609-1.434-2.825-2.937-3.602-4.493 0.081 12.955 29.823 23.447 66.5 23.447s66.419-10.492 66.5-23.447z" clip-rule="evenodd" fill="#C0DCDC" fill-rule="evenodd"/>
</g>
<path d="m242 103h-133v201h0.733c4.782 11.319 32.406 20 65.767 20s60.985-8.681 65.767-20h0.733v-201z" clip-rule="evenodd" fill="#CDE4E4" fill-rule="evenodd"/>
<g filter="url(#u)">
<mask id="b" x="109" y="80" width="133" height="47" mask-type="alpha" maskUnits="userSpaceOnUse">
<ellipse cx="175.5" cy="103.5" rx="66.5" ry="23.5" fill="#F8F8F9"/>
</mask>
<g mask="url(#b)">
<ellipse cx="175.5" cy="103.5" rx="66.5" ry="23.5" fill="#E4F5F5"/>
<path d="m218.45 122.3c0.325-1.623-0.06-4.905-8.105-5.627-10.751-0.966-19.973-2.597-20.038-2.608-1.506-0.906-1.785-2.502-1.785-2.502l-0.182 4e-3c3.42-1.298 4.916-2.926 5.535-4.296 0.25 0.079 0.55 0.136 0.889 0.137 1.016 1e-3 2.384-0.515 3.862-2.519 1.849-2.509 0.105-2.998-1.574-2.99-0.24 1e-3 -0.478 0.012-0.705 0.029 7e-3 -0.017 0.011-0.026 0.011-0.026 4.691-6.9473-5.084-7.2115-6.64-7.2105-0.131 0-0.204 2e-3 -0.204 2e-3 -0.831-1.3079-5.547-2.6629-10.47-2.707-0.703-0.0065-1.412 0.014-2.112 0.0652-1.753 0.1278-4.088 0.171-6.47 0.1689-5.242-0.0041-7.353 0.6863-7.353 0.6863l-1.424 0.5549c-11.93 2.5706-6.97 8.4172-6.97 8.4172l-5e-3 0.054c-0.336-0.035-0.398-0.033-0.784-0.034-1.673-4e-3 -3.403 0.489-1.559 2.991 1.464 1.987 2.823 2.511 3.837 2.519 0.283 2e-3 0.54-0.037 0.764-0.095 0.629 1.359 2.127 2.966 5.503 4.249 0 0-0.316 1.803-2.084 2.663 0 0-8.95 1.478-19.739 2.447-8.041 0.722-8.43 4-8.106 5.624 0 0-0.094 2.255 0.934 3.17 0 0 6.115 1.404 17.104 2.46 0 0 13.381-7e-3 26.352-7e-3h23.58c10.949-1.055 17.041-2.453 17.041-2.453 1.026-0.915 0.934-3.17 0.934-3.17l-0.037 3e-3z" fill="#fff"/>
</g>
</g>
<g filter="url(#t)">
<path d="m242 120c-0.777 1.556-1.993 3.059-3.603 4.493-0.712 1.012-1.673 2.037-2.905 3.066-3.115 2.603-7.743 5.037-13.636 7.119-11.769 4.159-28.158 6.769-46.356 6.769s-34.588-2.61-46.356-6.769c-5.894-2.082-10.521-4.516-13.636-7.119-1.232-1.029-2.193-2.054-2.906-3.066-1.609-1.434-2.825-2.937-3.602-4.493 0.081 12.954 29.823 23.447 66.5 23.447s66.419-10.493 66.5-23.447z" clip-rule="evenodd" fill="#C0DCDC" fill-rule="evenodd"/>
</g>
<g filter="url(#s)">
<path d="m242 136.45c-0.777 1.556-1.993 3.059-3.603 4.493-0.712 1.012-1.673 2.037-2.905 3.066-3.115 2.603-7.743 5.037-13.636 7.119-11.769 4.159-28.158 6.769-46.356 6.769s-34.588-2.61-46.356-6.769c-5.894-2.082-10.521-4.516-13.636-7.119-1.232-1.029-2.193-2.054-2.906-3.066-1.609-1.434-2.825-2.937-3.602-4.493 0.081 12.954 29.823 23.447 66.5 23.447s66.419-10.493 66.5-23.447z" clip-rule="evenodd" fill="#C0DCDC" fill-rule="evenodd"/>
</g>
<g filter="url(#r)">
<path d="m242 152.89c-0.777 1.556-1.993 3.059-3.603 4.493-0.712 1.012-1.673 2.037-2.905 3.066-3.115 2.603-7.743 5.037-13.636 7.119-11.769 4.159-28.158 6.769-46.356 6.769s-34.588-2.61-46.356-6.769c-5.894-2.082-10.521-4.516-13.636-7.119-1.232-1.029-2.193-2.054-2.906-3.066-1.609-1.434-2.825-2.937-3.602-4.493 0.081 12.954 29.823 23.447 66.5 23.447s66.419-10.493 66.5-23.447z" clip-rule="evenodd" fill="#C0DCDC" fill-rule="evenodd"/>
</g>
<g filter="url(#q)">
<path d="m242 169.34c-0.777 1.556-1.993 3.059-3.603 4.493-0.712 1.012-1.673 2.037-2.905 3.067-3.115 2.602-7.743 5.036-13.636 7.118-11.769 4.159-28.158 6.769-46.356 6.769s-34.588-2.61-46.356-6.769c-5.894-2.082-10.521-4.516-13.636-7.118-1.232-1.03-2.193-2.055-2.906-3.067-1.609-1.434-2.825-2.937-3.602-4.493 0.081 12.954 29.823 23.447 66.5 23.447s66.419-10.493 66.5-23.447z" clip-rule="evenodd" fill="#C0DCDC" fill-rule="evenodd"/>
</g>
<g filter="url(#p)">
<path d="m242 185.79c-0.777 1.556-1.993 3.059-3.603 4.493-0.712 1.012-1.673 2.037-2.905 3.067-3.115 2.602-7.743 5.036-13.636 7.118-11.769 4.159-28.158 6.769-46.356 6.769s-34.588-2.61-46.356-6.769c-5.894-2.082-10.521-4.516-13.636-7.118-1.232-1.03-2.193-2.055-2.906-3.067-1.609-1.434-2.825-2.937-3.602-4.493 0.081 12.954 29.823 23.447 66.5 23.447s66.419-10.493 66.5-23.447z" clip-rule="evenodd" fill="#C0DCDC" fill-rule="evenodd"/>
</g>
<path d="m133 157h-133v201h0.73254c4.7827 11.319 32.406 20 65.767 20s60.985-8.681 65.767-20h0.733v-201z" clip-rule="evenodd" fill="#CDE4E4" fill-rule="evenodd"/>
<g filter="url(#o)">
<mask id="a" x="0" y="134" width="133" height="47" mask-type="alpha" maskUnits="userSpaceOnUse">
<ellipse cx="66.5" cy="157.5" rx="66.5" ry="23.5" fill="#F8F8F9"/>
</mask>
<g mask="url(#a)">
<ellipse cx="66.5" cy="157.5" rx="66.5" ry="23.5" fill="#E4F5F5"/>
<path d="m109.45 176.3c0.325-1.623-0.06-4.905-8.105-5.627-10.751-0.966-19.973-2.597-20.038-2.608-1.5058-0.906-1.7851-2.502-1.7851-2.502l-0.1817 4e-3c3.42-1.298 4.9157-2.926 5.5342-4.296 0.2509 0.079 0.5501 0.136 0.889 0.137 1.0167 1e-3 2.385-0.515 3.8624-2.519 1.849-2.509 0.1051-2.998-1.574-2.99-0.2396 1e-3 -0.4777 0.012-0.7046 0.029 0.0069-0.017 0.0112-0.026 0.0112-0.026 4.6904-6.947-5.0847-7.212-6.64-7.21-0.132 0-0.2043 2e-3 -0.2043 2e-3 -0.831-1.308-5.547-2.663-10.47-2.707-0.7033-7e-3 -1.4122 0.014-2.1126 0.065-1.7524 0.127-4.0877 0.171-6.4697 0.169-5.2422-4e-3 -7.353 0.686-7.353 0.686l-1.4238 0.555c-11.93 2.57-6.9704 8.417-6.9704 8.417l-0.0043 0.054c-0.3359-0.035-0.3984-0.033-0.7842-0.034-1.6731-4e-3 -3.4029 0.489-1.5595 2.991 1.4646 1.987 2.8231 2.511 3.8368 2.519 0.2836 2e-3 0.5403-0.037 0.7642-0.095 0.6297 1.359 2.127 2.966 5.5031 4.249 0 0-0.316 1.803-2.0841 2.663 0 0-8.95 1.478-19.739 2.447-8.041 0.722-8.4294 4-8.1062 5.624 0 0-0.0936 2.255 0.9345 3.17 0 0 6.1152 1.404 17.104 2.46 0 0 13.381-7e-3 26.351-7e-3h23.58c10.949-1.055 17.041-2.453 17.041-2.453 1.026-0.915 0.934-3.17 0.934-3.17l-0.037 3e-3z" fill="#fff"/>
</g>
</g>
<g filter="url(#n)">
<path d="m133 174c-0.777 1.556-1.993 3.059-3.603 4.493-0.712 1.012-1.673 2.037-2.905 3.066-3.115 2.603-7.743 5.037-13.636 7.119-11.769 4.159-28.158 6.769-46.356 6.769s-34.587-2.61-46.356-6.769c-5.8934-2.082-10.52-4.516-13.636-7.119-1.2322-1.029-2.1934-2.054-2.9058-3.066-1.6093-1.434-2.8255-2.937-3.6022-4.493 0.080912 12.954 29.823 23.447 66.5 23.447 36.677 0 66.419-10.493 66.5-23.447z" clip-rule="evenodd" fill="#C0DCDC" fill-rule="evenodd"/>
</g>
<g filter="url(#m)">
<path d="m133 190.45c-0.777 1.556-1.993 3.059-3.603 4.493-0.712 1.012-1.673 2.037-2.905 3.066-3.115 2.603-7.743 5.037-13.636 7.119-11.769 4.159-28.158 6.769-46.356 6.769s-34.587-2.61-46.356-6.769c-5.8934-2.082-10.52-4.516-13.636-7.119-1.2322-1.029-2.1934-2.054-2.9058-3.066-1.6093-1.434-2.8255-2.937-3.6022-4.493 0.080912 12.954 29.823 23.447 66.5 23.447 36.677 0 66.419-10.493 66.5-23.447z" clip-rule="evenodd" fill="#C0DCDC" fill-rule="evenodd"/>
</g>
<defs>
<filter id="w" x="204" y="0" width="133" height="49" color-interpolation-filters="sRGB" filterUnits="userSpaceOnUse">
<feFlood flood-opacity="0" result="BackgroundImageFix"/>
<feColorMatrix in="SourceAlpha" values="0 0 0 0 0 0 0 0 0 0 0 0 0 0 0 0 0 0 127 0"/>
<feOffset dy="2"/>
<feColorMatrix values="0 0 0 0 0.740104 0 0 0 0 0.875 0 0 0 0 0.875 0 0 0 0.4 0"/>
<feBlend in2="BackgroundImageFix" result="effect1_dropShadow"/>
<feBlend in="SourceGraphic" in2="effect1_dropShadow" result="shape"/>
</filter>
<filter id="l" x="204" y="38" width="133" height="25.447" color-interpolation-filters="sRGB" filterUnits="userSpaceOnUse">
<feFlood flood-opacity="0" result="BackgroundImageFix"/>
<feColorMatrix in="SourceAlpha" values="0 0 0 0 0 0 0 0 0 0 0 0 0 0 0 0 0 0 127 0"/>
<feOffset dy="-2"/>
<feColorMatrix values="0 0 0 0 0.894118 0 0 0 0 0.960784 0 0 0 0 0.960784 0 0 0 0.25 0"/>
<feBlend in2="BackgroundImageFix" result="effect1_dropShadow"/>
<feBlend in="SourceGraphic" in2="effect1_dropShadow" result="shape"/>
</filter>
<filter id="k" x="204" y="54.447" width="133" height="25.447" color-interpolation-filters="sRGB" filterUnits="userSpaceOnUse">
<feFlood flood-opacity="0" result="BackgroundImageFix"/>
<feColorMatrix in="SourceAlpha" values="0 0 0 0 0 0 0 0 0 0 0 0 0 0 0 0 0 0 127 0"/>
<feOffset dy="-2"/>
<feColorMatrix values="0 0 0 0 0.894118 0 0 0 0 0.960784 0 0 0 0 0.960784 0 0 0 0.25 0"/>
<feBlend in2="BackgroundImageFix" result="effect1_dropShadow"/>
<feBlend in="SourceGraphic" in2="effect1_dropShadow" result="shape"/>
</filter>
<filter id="j" x="204" y="70.894" width="133" height="25.447" color-interpolation-filters="sRGB" filterUnits="userSpaceOnUse">
<feFlood flood-opacity="0" result="BackgroundImageFix"/>
<feColorMatrix in="SourceAlpha" values="0 0 0 0 0 0 0 0 0 0 0 0 0 0 0 0 0 0 127 0"/>
<feOffset dy="-2"/>
<feColorMatrix values="0 0 0 0 0.894118 0 0 0 0 0.960784 0 0 0 0 0.960784 0 0 0 0.25 0"/>
<feBlend in2="BackgroundImageFix" result="effect1_dropShadow"/>
<feBlend in="SourceGraphic" in2="effect1_dropShadow" result="shape"/>
</filter>
<filter id="i" x="204" y="87.341" width="133" height="25.447" color-interpolation-filters="sRGB" filterUnits="userSpaceOnUse">
<feFlood flood-opacity="0" result="BackgroundImageFix"/>
<feColorMatrix in="SourceAlpha" values="0 0 0 0 0 0 0 0 0 0 0 0 0 0 0 0 0 0 127 0"/>
<feOffset dy="-2"/>
<feColorMatrix values="0 0 0 0 0.894118 0 0 0 0 0.960784 0 0 0 0 0.960784 0 0 0 0.25 0"/>
<feBlend in2="BackgroundImageFix" result="effect1_dropShadow"/>
<feBlend in="SourceGraphic" in2="effect1_dropShadow" result="shape"/>
</filter>
<filter id="h" x="204" y="103.79" width="133" height="25.447" color-interpolation-filters="sRGB" filterUnits="userSpaceOnUse">
<feFlood flood-opacity="0" result="BackgroundImageFix"/>
<feColorMatrix in="SourceAlpha" values="0 0 0 0 0 0 0 0 0 0 0 0 0 0 0 0 0 0 127 0"/>
<feOffset dy="-2"/>
<feColorMatrix values="0 0 0 0 0.894118 0 0 0 0 0.960784 0 0 0 0 0.960784 0 0 0 0.25 0"/>
<feBlend in2="BackgroundImageFix" result="effect1_dropShadow"/>
<feBlend in="SourceGraphic" in2="effect1_dropShadow" result="shape"/>
</filter>
<filter id="g" x="204" y="120.24" width="133" height="25.447" color-interpolation-filters="sRGB" filterUnits="userSpaceOnUse">
<feFlood flood-opacity="0" result="BackgroundImageFix"/>
<feColorMatrix in="SourceAlpha" values="0 0 0 0 0 0 0 0 0 0 0 0 0 0 0 0 0 0 127 0"/>
<feOffset dy="-2"/>
<feColorMatrix values="0 0 0 0 0.894118 0 0 0 0 0.960784 0 0 0 0 0.960784 0 0 0 0.25 0"/>
<feBlend in2="BackgroundImageFix" result="effect1_dropShadow"/>
<feBlend in="SourceGraphic" in2="effect1_dropShadow" result="shape"/>
</filter>
<filter id="f" x="204" y="136.68" width="133" height="25.447" color-interpolation-filters="sRGB" filterUnits="userSpaceOnUse">
<feFlood flood-opacity="0" result="BackgroundImageFix"/>
<feColorMatrix in="SourceAlpha" values="0 0 0 0 0 0 0 0 0 0 0 0 0 0 0 0 0 0 127 0"/>
<feOffset dy="-2"/>
<feColorMatrix values="0 0 0 0 0.894118 0 0 0 0 0.960784 0 0 0 0 0.960784 0 0 0 0.25 0"/>
<feBlend in2="BackgroundImageFix" result="effect1_dropShadow"/>
<feBlend in="SourceGraphic" in2="effect1_dropShadow" result="shape"/>
</filter>
<filter id="e" x="204" y="153.13" width="133" height="25.447" color-interpolation-filters="sRGB" filterUnits="userSpaceOnUse">
<feFlood flood-opacity="0" result="BackgroundImageFix"/>
<feColorMatrix in="SourceAlpha" values="0 0 0 0 0 0 0 0 0 0 0 0 0 0 0 0 0 0 127 0"/>
<feOffset dy="-2"/>
<feColorMatrix values="0 0 0 0 0.894118 0 0 0 0 0.960784 0 0 0 0 0.960784 0 0 0 0.25 0"/>
<feBlend in2="BackgroundImageFix" result="effect1_dropShadow"/>
<feBlend in="SourceGraphic" in2="effect1_dropShadow" result="shape"/>
</filter>
<filter id="d" x="204" y="169.58" width="133" height="25.447" color-interpolation-filters="sRGB" filterUnits="userSpaceOnUse">
<feFlood flood-opacity="0" result="BackgroundImageFix"/>
<feColorMatrix in="SourceAlpha" values="0 0 0 0 0 0 0 0 0 0 0 0 0 0 0 0 0 0 127 0"/>
<feOffset dy="-2"/>
<feColorMatrix values="0 0 0 0 0.894118 0 0 0 0 0.960784 0 0 0 0 0.960784 0 0 0 0.25 0"/>
<feBlend in2="BackgroundImageFix" result="effect1_dropShadow"/>
<feBlend in="SourceGraphic" in2="effect1_dropShadow" result="shape"/>
</filter>
<filter id="v" x="204" y="186.02" width="133" height="25.447" color-interpolation-filters="sRGB" filterUnits="userSpaceOnUse">
<feFlood flood-opacity="0" result="BackgroundImageFix"/>
<feColorMatrix in="SourceAlpha" values="0 0 0 0 0 0 0 0 0 0 0 0 0 0 0 0 0 0 127 0"/>
<feOffset dy="-2"/>
<feColorMatrix values="0 0 0 0 0.894118 0 0 0 0 0.960784 0 0 0 0 0.960784 0 0 0 0.25 0"/>
<feBlend in2="BackgroundImageFix" result="effect1_dropShadow"/>
<feBlend in="SourceGraphic" in2="effect1_dropShadow" result="shape"/>
</filter>
<filter id="u" x="109" y="80" width="133" height="49" color-interpolation-filters="sRGB" filterUnits="userSpaceOnUse">
<feFlood flood-opacity="0" result="BackgroundImageFix"/>
<feColorMatrix in="SourceAlpha" values="0 0 0 0 0 0 0 0 0 0 0 0 0 0 0 0 0 0 127 0"/>
<feOffset dy="2"/>
<feColorMatrix values="0 0 0 0 0.740104 0 0 0 0 0.875 0 0 0 0 0.875 0 0 0 0.4 0"/>
<feBlend in2="BackgroundImageFix" result="effect1_dropShadow"/>
<feBlend in="SourceGraphic" in2="effect1_dropShadow" result="shape"/>
</filter>
<filter id="t" x="109" y="118" width="133" height="25.447" color-interpolation-filters="sRGB" filterUnits="userSpaceOnUse">
<feFlood flood-opacity="0" result="BackgroundImageFix"/>
<feColorMatrix in="SourceAlpha" values="0 0 0 0 0 0 0 0 0 0 0 0 0 0 0 0 0 0 127 0"/>
<feOffset dy="-2"/>
<feColorMatrix values="0 0 0 0 0.894118 0 0 0 0 0.960784 0 0 0 0 0.960784 0 0 0 0.25 0"/>
<feBlend in2="BackgroundImageFix" result="effect1_dropShadow"/>
<feBlend in="SourceGraphic" in2="effect1_dropShadow" result="shape"/>
</filter>
<filter id="s" x="109" y="134.45" width="133" height="25.447" color-interpolation-filters="sRGB" filterUnits="userSpaceOnUse">
<feFlood flood-opacity="0" result="BackgroundImageFix"/>
<feColorMatrix in="SourceAlpha" values="0 0 0 0 0 0 0 0 0 0 0 0 0 0 0 0 0 0 127 0"/>
<feOffset dy="-2"/>
<feColorMatrix values="0 0 0 0 0.894118 0 0 0 0 0.960784 0 0 0 0 0.960784 0 0 0 0.25 0"/>
<feBlend in2="BackgroundImageFix" result="effect1_dropShadow"/>
<feBlend in="SourceGraphic" in2="effect1_dropShadow" result="shape"/>
</filter>
<filter id="r" x="109" y="150.89" width="133" height="25.447" color-interpolation-filters="sRGB" filterUnits="userSpaceOnUse">
<feFlood flood-opacity="0" result="BackgroundImageFix"/>
<feColorMatrix in="SourceAlpha" values="0 0 0 0 0 0 0 0 0 0 0 0 0 0 0 0 0 0 127 0"/>
<feOffset dy="-2"/>
<feColorMatrix values="0 0 0 0 0.894118 0 0 0 0 0.960784 0 0 0 0 0.960784 0 0 0 0.25 0"/>
<feBlend in2="BackgroundImageFix" result="effect1_dropShadow"/>
<feBlend in="SourceGraphic" in2="effect1_dropShadow" result="shape"/>
</filter>
<filter id="q" x="109" y="167.34" width="133" height="25.447" color-interpolation-filters="sRGB" filterUnits="userSpaceOnUse">
<feFlood flood-opacity="0" result="BackgroundImageFix"/>
<feColorMatrix in="SourceAlpha" values="0 0 0 0 0 0 0 0 0 0 0 0 0 0 0 0 0 0 127 0"/>
<feOffset dy="-2"/>
<feColorMatrix values="0 0 0 0 0.894118 0 0 0 0 0.960784 0 0 0 0 0.960784 0 0 0 0.25 0"/>
<feBlend in2="BackgroundImageFix" result="effect1_dropShadow"/>
<feBlend in="SourceGraphic" in2="effect1_dropShadow" result="shape"/>
</filter>
<filter id="p" x="109" y="183.79" width="133" height="25.447" color-interpolation-filters="sRGB" filterUnits="userSpaceOnUse">
<feFlood flood-opacity="0" result="BackgroundImageFix"/>
<feColorMatrix in="SourceAlpha" values="0 0 0 0 0 0 0 0 0 0 0 0 0 0 0 0 0 0 127 0"/>
<feOffset dy="-2"/>
<feColorMatrix values="0 0 0 0 0.894118 0 0 0 0 0.960784 0 0 0 0 0.960784 0 0 0 0.25 0"/>
<feBlend in2="BackgroundImageFix" result="effect1_dropShadow"/>
<feBlend in="SourceGraphic" in2="effect1_dropShadow" result="shape"/>
</filter>
<filter id="o" x="0" y="134" width="133" height="49" color-interpolation-filters="sRGB" filterUnits="userSpaceOnUse">
<feFlood flood-opacity="0" result="BackgroundImageFix"/>
<feColorMatrix in="SourceAlpha" values="0 0 0 0 0 0 0 0 0 0 0 0 0 0 0 0 0 0 127 0"/>
<feOffset dy="2"/>
<feColorMatrix values="0 0 0 0 0.740104 0 0 0 0 0.875 0 0 0 0 0.875 0 0 0 0.4 0"/>
<feBlend in2="BackgroundImageFix" result="effect1_dropShadow"/>
<feBlend in="SourceGraphic" in2="effect1_dropShadow" result="shape"/>
</filter>
<filter id="n" x="0" y="172" width="133" height="25.447" color-interpolation-filters="sRGB" filterUnits="userSpaceOnUse">
<feFlood flood-opacity="0" result="BackgroundImageFix"/>
<feColorMatrix in="SourceAlpha" values="0 0 0 0 0 0 0 0 0 0 0 0 0 0 0 0 0 0 127 0"/>
<feOffset dy="-2"/>
<feColorMatrix values="0 0 0 0 0.894118 0 0 0 0 0.960784 0 0 0 0 0.960784 0 0 0 0.25 0"/>
<feBlend in2="BackgroundImageFix" result="effect1_dropShadow"/>
<feBlend in="SourceGraphic" in2="effect1_dropShadow" result="shape"/>
</filter>
<filter id="m" x="0" y="188.45" width="133" height="25.447" color-interpolation-filters="sRGB" filterUnits="userSpaceOnUse">
<feFlood flood-opacity="0" result="BackgroundImageFix"/>
<feColorMatrix in="SourceAlpha" values="0 0 0 0 0 0 0 0 0 0 0 0 0 0 0 0 0 0 127 0"/>
<feOffset dy="-2"/>
<feColorMatrix values="0 0 0 0 0.894118 0 0 0 0 0.960784 0 0 0 0 0.960784 0 0 0 0.25 0"/>
<feBlend in2="BackgroundImageFix" result="effect1_dropShadow"/>
<feBlend in="SourceGraphic" in2="effect1_dropShadow" result="shape"/>
</filter>
</defs>
</svg>
