<?xml version="1.0" standalone="no"?>
<!DOCTYPE svg PUBLIC "-//W3C//DTD SVG 20010904//EN"
 "http://www.w3.org/TR/2001/REC-SVG-20010904/DTD/svg10.dtd">
<svg version="1.0" xmlns="http://www.w3.org/2000/svg"
 width="512.000000pt" height="512.000000pt" viewBox="0 0 512.000000 512.000000"
 preserveAspectRatio="xMidYMid meet">
<metadata>
Created by potrace 1.11, written by Peter Selinger 2001-2013
</metadata>
<g transform="translate(0.000000,512.000000) scale(0.100000,-0.100000)"
fill="#000000" stroke="none">
<path d="M4188 4245 c-2 -2 -19 -6 -38 -9 -93 -15 -134 -28 -215 -69 -188 -93
-353 -277 -416 -462 -7 -22 -14 -42 -14 -45 -1 -3 -4 -14 -7 -25 -22 -66 -29
-245 -14 -340 54 -338 352 -627 692 -671 225 -29 450 31 619 165 114 90 188
178 242 286 55 109 77 205 77 345 1 134 -3 164 -29 250 -68 219 -250 419 -463
510 -60 25 -163 56 -202 59 -35 4 -230 8 -232 6z m239 -460 c55 -16 130 -67
176 -119 97 -110 115 -287 42 -412 -30 -52 -116 -130 -170 -155 -46 -21 -148
-45 -185 -43 -56 3 -114 15 -143 29 -16 8 -35 15 -42 15 -6 0 -39 25 -73 55
-43 39 -71 76 -94 123 -30 61 -33 74 -32 157 0 77 4 98 28 147 31 65 107 146
167 178 89 49 218 59 326 25z"/>
<path d="M3 3153 c2 -582 6 -1069 9 -1083 3 -14 9 -45 12 -70 4 -25 12 -63 18
-85 5 -22 11 -47 13 -55 20 -98 147 -360 202 -418 7 -7 13 -17 13 -22 0 -12
180 -193 230 -231 25 -18 47 -36 50 -39 5 -5 12 -10 130 -77 156 -90 404 -168
605 -189 63 -7 435 -11 435 -5 0 3 24 7 53 8 42 2 156 23 261 48 199 48 470
200 616 347 41 40 111 125 151 183 51 72 143 260 155 314 1 8 10 37 19 65 10
28 19 62 21 76 3 14 9 50 16 80 19 97 20 118 22 1173 l2 1037 -486 0 -486 0 1
-977 c0 -1032 -1 -1077 -40 -1192 -65 -195 -222 -334 -406 -357 -163 -20 -289
10 -409 99 -118 86 -207 241 -226 392 -3 28 -7 497 -7 1043 l-2 992 -488 0
-488 0 4 -1057z"/>
</g>
</svg>
